<svg aria-hidden="true" style="position: absolute; width: 0; height: 0; overflow: hidden;" version="1.1" xmlns="http://www.w3.org/2000/svg" xmlns:xlink="http://www.w3.org/1999/xlink">
<defs>
<symbol id="icon-Icon-Lighting" viewBox="0 0 23 32">
<path fill="none" stroke="#898d92" style="stroke: var(--color1, #898d92)" stroke-linejoin="round" stroke-linecap="round" stroke-miterlimit="4" stroke-width="1" d="M13.833 1v11.539h8.167l-12.833 18.462v-11.538h-8.167l12.833-18.462z"></path>
</symbol>
<symbol id="icon-Icon-Quality" viewBox="0 0 32 32">
<path fill="none" stroke="#898d92" style="stroke: var(--color1, #898d92)" stroke-linejoin="round" stroke-linecap="round" stroke-miterlimit="4" stroke-width="1" d="M30.841 8.136c-0.045-0.242-0.14-0.471-0.279-0.674s-0.319-0.374-0.529-0.502l-4.616 4.614c-0.215 0.223-0.473 0.401-0.759 0.522s-0.593 0.184-0.903 0.184c-0.31 0-0.617-0.063-0.903-0.184s-0.544-0.299-0.759-0.522l-1.754-1.569c-0.423-0.431-0.66-1.011-0.66-1.615s0.237-1.184 0.66-1.615l4.616-4.614c-0.101-0.236-0.252-0.448-0.444-0.619s-0.418-0.299-0.664-0.373c-1.61-0.321-3.279-0.184-4.815 0.397s-2.878 1.58-3.874 2.885c-0.996 1.305-1.605 2.864-1.758 4.498s0.156 3.279 0.892 4.746l-12.6 12.48c-0.22 0.215-0.394 0.471-0.514 0.755s-0.181 0.587-0.181 0.895c0 0.307 0.061 0.612 0.181 0.895s0.294 0.54 0.514 0.755l0.831 0.831c0.215 0.22 0.472 0.394 0.755 0.514s0.588 0.181 0.895 0.181c0.307 0 0.612-0.061 0.895-0.181s0.54-0.294 0.755-0.514l12.6-12.573c1.468 0.699 3.102 0.978 4.719 0.805s3.155-0.792 4.441-1.786c1.287-0.995 2.272-2.326 2.847-3.847s0.716-3.171 0.409-4.768v0z"></path>
</symbol>
<symbol id="icon-Icon-Star" viewBox="0 0 33 32">
<path fill="none" stroke="#898d92" style="stroke: var(--color1, #898d92)" stroke-linejoin="round" stroke-linecap="round" stroke-miterlimit="4" stroke-width="1.0323" d="M17.718 1.786l3.797 7.726c0.086 0.196 0.222 0.366 0.394 0.493s0.373 0.206 0.585 0.229l8.381 1.252c0.243 0.031 0.472 0.132 0.66 0.289s0.328 0.366 0.403 0.601c0.075 0.235 0.082 0.486 0.021 0.725s-0.189 0.455-0.367 0.623l-6.041 6.041c-0.154 0.145-0.27 0.327-0.337 0.529s-0.082 0.417-0.045 0.627l1.457 8.496c0.042 0.244 0.016 0.495-0.077 0.725s-0.247 0.428-0.446 0.574-0.435 0.232-0.68 0.249c-0.245 0.017-0.49-0.035-0.707-0.152l-7.545-4.020c-0.193-0.096-0.406-0.145-0.621-0.145s-0.428 0.050-0.621 0.145l-7.545 4.020c-0.217 0.116-0.462 0.169-0.707 0.152s-0.481-0.103-0.68-0.249-0.354-0.344-0.446-0.574c-0.092-0.23-0.119-0.481-0.077-0.725l1.457-8.593c0.037-0.209 0.021-0.425-0.045-0.627s-0.182-0.383-0.337-0.529l-6.113-5.945c-0.181-0.173-0.308-0.395-0.366-0.64s-0.045-0.501 0.039-0.737c0.083-0.237 0.233-0.444 0.431-0.597s0.436-0.245 0.684-0.264l8.381-1.252c0.212-0.024 0.413-0.103 0.585-0.229s0.308-0.297 0.394-0.493l3.797-7.726c0.103-0.225 0.268-0.416 0.476-0.549s0.448-0.204 0.694-0.204 0.487 0.071 0.694 0.204c0.207 0.133 0.372 0.324 0.476 0.549v0z"></path>
</symbol>
<symbol id="icon-Icon-Lamp" viewBox="0 0 23 32">
<path fill="none" stroke="#898d92" style="stroke: var(--color1, #898d92)" stroke-linejoin="round" stroke-linecap="round" stroke-miterlimit="4" stroke-width="1" d="M22.023 11.491c0.013-1.86-0.472-3.689-1.405-5.298s-2.279-2.939-3.9-3.852c-1.62-0.913-3.456-1.375-5.315-1.339s-3.675 0.569-5.259 1.544-2.878 2.356-3.748 3.999c-0.87 1.644-1.284 3.49-1.2 5.348s0.665 3.659 1.681 5.217 2.43 2.815 4.096 3.642v3.473c0 0.307 0.122 0.602 0.339 0.819s0.512 0.339 0.819 0.339h6.946c0.307 0 0.601-0.122 0.819-0.339s0.339-0.512 0.339-0.819v-3.473c1.731-0.853 3.189-2.171 4.212-3.807s1.569-3.525 1.576-5.454v0z"></path>
<path fill="none" stroke="#898d92" style="stroke: var(--color1, #898d92)" stroke-linejoin="round" stroke-linecap="round" stroke-miterlimit="4" stroke-width="1" d="M6.973 31.171h9.261"></path>
</symbol>
<symbol id="icon-arrow-1" viewBox="0 0 90 32">
<path fill="none" stroke="#fff" style="stroke: var(--color2, #fff)" stroke-linejoin="round" stroke-linecap="round" stroke-miterlimit="4" stroke-width="1.28" d="M73.813 22.482l7.811-6.695-7.811-6.695"></path>
<path fill="none" stroke="#fff" style="stroke: var(--color2, #fff)" stroke-linejoin="round" stroke-linecap="round" stroke-miterlimit="4" stroke-width="1.28" d="M81.624 15.787h-15.623"></path>
<path fill="none" stroke="#fff" style="stroke: var(--color2, #fff)" stroke-linejoin="round" stroke-linecap="round" stroke-miterlimit="4" stroke-width="1.28" d="M88.32 15.787c0-8.012-6.495-14.507-14.507-14.507s-14.507 6.495-14.507 14.507c0 8.012 6.495 14.507 14.507 14.507s14.507-6.495 14.507-14.507z"></path>
<path fill="none" stroke="#898d92" style="stroke: var(--color1, #898d92)" stroke-linejoin="round" stroke-linecap="round" stroke-miterlimit="4" stroke-width="1.28" d="M15.787 22.482l-7.811-6.695 7.811-6.695"></path>
<path fill="none" stroke="#898d92" style="stroke: var(--color1, #898d92)" stroke-linejoin="round" stroke-linecap="round" stroke-miterlimit="4" stroke-width="1.28" d="M7.975 15.787h15.623"></path>
<path fill="none" stroke="#898d92" style="stroke: var(--color1, #898d92)" stroke-linejoin="round" stroke-linecap="round" stroke-miterlimit="4" stroke-width="1.28" d="M1.28 15.787c0-8.012 6.495-14.507 14.507-14.507s14.507 6.495 14.507 14.507c0 8.012-6.495 14.507-14.507 14.507s-14.507-6.495-14.507-14.507z"></path>
</symbol>
<symbol id="icon-Icon-Agency" viewBox="0 0 32 32">
<path fill="none" stroke="#fff" style="stroke: var(--color2, #fff)" stroke-linejoin="round" stroke-linecap="round" stroke-miterlimit="4" stroke-width="1" d="M1 31.112h25.468"></path>
<path fill="none" stroke="#fff" style="stroke: var(--color2, #fff)" stroke-linejoin="round" stroke-linecap="round" stroke-miterlimit="4" stroke-width="1" d="M14.892 23.009l-6.946 1.25 1.158-7.038 15.582-15.536c0.215-0.217 0.471-0.389 0.753-0.507s0.585-0.178 0.89-0.178c0.306 0 0.608 0.061 0.89 0.178s0.538 0.29 0.753 0.507l2.454 2.454c0.217 0.215 0.389 0.471 0.507 0.753s0.178 0.585 0.178 0.89-0.061 0.608-0.178 0.89c-0.117 0.282-0.29 0.538-0.507 0.753l-15.536 15.582z"></path>
</symbol>
<symbol id="icon-Vector-2" viewBox="0 0 0 32">
<path fill="none" stroke="#fff" style="stroke: var(--color2, #fff)" stroke-linejoin="miter" stroke-linecap="butt" stroke-miterlimit="4" stroke-width="0.2513" d="M0.168 0v31.916"></path>
</symbol>
<symbol id="icon-arrow-2" viewBox="0 0 6 32">
<path d="M2.557 31.796c0.147 0.147 0.385 0.147 0.532 0l2.396-2.396c0.147-0.147 0.147-0.385 0-0.532s-0.385-0.147-0.532 0l-2.13 2.13-2.13-2.13c-0.147-0.147-0.385-0.147-0.532 0s-0.147 0.385 0 0.532l2.396 2.396zM2.447 0v31.529h0.753v-31.529h-0.753z"></path>
</symbol>

<symbol id="icon-in" viewBox="0 0 29 32">
<path stroke-linejoin="round" stroke-linecap="round" stroke-miterlimit="4" stroke-width="1.5" d="M6.91 4.14c0.006 0.77-0.291 1.512-0.828 2.065s-1.269 0.873-2.039 0.89c-0.769-0.028-1.497-0.351-2.035-0.901s-0.844-1.285-0.854-2.055c0.033-0.749 0.35-1.458 0.887-1.982s1.252-0.825 2.002-0.841c0.748 0.016 1.461 0.318 1.994 0.842s0.845 1.233 0.873 1.98zM1.463 12.343c0-1.698 1.081-1.433 2.58-1.433s2.558-0.265 2.558 1.433v16.54c0 1.72-1.081 1.367-2.558 1.367s-2.58 0.353-2.58-1.367v-16.54z"></path>
<path stroke-linejoin="round" stroke-linecap="round" stroke-miterlimit="4" stroke-width="1.5" d="M11.056 12.344c0-0.948 0.353-1.301 0.904-1.411s2.448 0 3.11 0 0.926 1.081 0.904 1.896c0.566-0.759 1.317-1.361 2.182-1.747s1.814-0.544 2.758-0.458c0.926-0.057 1.854 0.082 2.723 0.408s1.66 0.83 2.321 1.481c0.661 0.651 1.178 1.434 1.518 2.298s0.493 1.789 0.451 2.716v11.291c0 1.72-1.058 1.367-2.558 1.367s-2.558 0.353-2.558-1.367v-8.821c0.039-0.454-0.021-0.911-0.174-1.34s-0.398-0.82-0.715-1.146c-0.318-0.326-0.703-0.581-1.127-0.745s-0.88-0.236-1.335-0.209c-0.453-0.012-0.903 0.073-1.32 0.249s-0.793 0.438-1.102 0.769c-0.309 0.331-0.543 0.725-0.688 1.154s-0.198 0.884-0.154 1.335v8.821c0 1.72-1.081 1.367-2.58 1.367s-2.558 0.353-2.558-1.367v-16.54z"></path>
</symbol>
<symbol id="icon-facebook" viewBox="0 0 18 32">
<path stroke-linejoin="round" stroke-linecap="round" stroke-miterlimit="4" stroke-width="1.5484" d="M11.199 9.27c0-2.276 1.138-2.276 2.276-2.276h1.366c0.228 0.003 0.454-0.040 0.666-0.125s0.403-0.213 0.565-0.374c0.161-0.161 0.289-0.353 0.374-0.564s0.129-0.438 0.126-0.666v-2.14c0-0.229-0.046-0.456-0.134-0.667s-0.218-0.403-0.381-0.564c-0.163-0.161-0.357-0.288-0.569-0.373s-0.44-0.128-0.669-0.125l-3.233-0.046c-0.941-0.036-1.879 0.132-2.749 0.493s-1.651 0.907-2.289 1.6c-0.638 0.693-1.119 1.515-1.409 2.412s-0.381 1.845-0.268 2.78v3.301h-1.798c-0.459 0-0.899 0.182-1.223 0.507s-0.507 0.765-0.507 1.223v2.14c0 0.459 0.182 0.899 0.507 1.223s0.765 0.507 1.223 0.507h1.798v12.225c0 0.302 0.12 0.591 0.333 0.805s0.503 0.333 0.805 0.333h4.12c0.29-0.017 0.562-0.145 0.761-0.357s0.309-0.491 0.309-0.782v-12.225h2.003c0.459 0 0.899-0.182 1.223-0.507s0.507-0.765 0.507-1.223v-2.14c0-0.459-0.182-0.899-0.507-1.223s-0.765-0.507-1.223-0.507h-2.003v-2.663z"></path>
</symbol>
<symbol id="icon-google" viewBox="0 0 29 32">
<path stroke-linejoin="round" stroke-linecap="round" stroke-miterlimit="4" stroke-width="1.5" d="M23.825 13.387h-5.491c-0.15 0-0.298 0.030-0.436 0.088s-0.263 0.143-0.368 0.249c-0.105 0.107-0.187 0.233-0.242 0.372s-0.082 0.288-0.079 0.437v3.109c0 0.298 0.119 0.584 0.329 0.795s0.497 0.329 0.795 0.329h2.845c0.016 0.852-0.148 1.698-0.481 2.483s-0.828 1.49-1.452 2.071-1.364 1.023-2.171 1.299c-0.807 0.275-1.663 0.378-2.512 0.3-4.94 0-7.322-4.19-7.322-8.954s2.558-8.954 7.322-8.954c2.103-0.070 4.164 0.601 5.822 1.897 0.133 0.087 0.282 0.143 0.439 0.166s0.317 0.010 0.468-0.036 0.291-0.125 0.409-0.232c0.118-0.106 0.21-0.237 0.272-0.383l1.389-3.176c0.114-0.234 0.144-0.501 0.084-0.754s-0.207-0.478-0.414-0.635c-2.529-1.512-5.434-2.277-8.38-2.205-8.027-0.022-13.496 6.219-13.496 14.312s5.491 14.335 13.408 14.335c7.917 0 12.703-5.646 12.703-13.232 0-2.426-0.97-3.683-3.44-3.683z"></path>
</symbol>
<symbol id="icon-twiter" viewBox="0 0 36 32">
<path stroke-linejoin="round" stroke-linecap="round" stroke-miterlimit="4" stroke-width="1.7778" d="M9.906 22.437c-1.866 1.466-4.008 2.541-6.299 3.163-0.252 0.091-0.47 0.259-0.624 0.478s-0.237 0.482-0.237 0.75c0 0.268 0.083 0.53 0.237 0.75s0.372 0.387 0.624 0.478c18.087 7.423 29.587-4.051 27.836-16.78l2.927-6.064h-3.398c-4.234-5.201-15.473-4.94-13.617 6.142 0 0-6.012 1.072-13.696-6.482-0.178-0.175-0.402-0.296-0.646-0.348s-0.498-0.033-0.732 0.055c-0.234 0.088-0.437 0.241-0.587 0.441s-0.238 0.439-0.256 0.688c-0.813 3.34-0.406 6.86 1.147 9.927s4.149 5.478 7.322 6.801v0z"></path>
</symbol>
<symbol id="icon-Group-23" viewBox="0 0 125 32">
<path fill="#fff" style="fill: var(--color1, #fff)" opacity="0.37" d="M29.365 16c0 8.109-6.573 14.682-14.682 14.682s-14.682-6.573-14.682-14.682c0-8.109 6.574-14.682 14.682-14.682s14.682 6.574 14.682 14.682z"></path>
<path fill="#233942" style="fill: var(--color2, #233942)" d="M77.082 16c0 8.109-6.573 14.682-14.682 14.682s-14.682-6.573-14.682-14.682c0-8.109 6.574-14.682 14.682-14.682s14.682 6.574 14.682 14.682z"></path>
<path fill="#fff" style="fill: var(--color1, #fff)" opacity="0.37" d="M124.8 16c0 8.109-6.573 14.682-14.682 14.682s-14.682-6.573-14.682-14.682c0-8.109 6.573-14.682 14.682-14.682s14.682 6.574 14.682 14.682z"></path>
</symbol>
<symbol id="icon-Vector-8" viewBox="0 0 5088 32">
<path fill="none" stroke="#fff" style="stroke: var(--color1, #fff)" stroke-linejoin="miter" stroke-linecap="butt" stroke-miterlimit="4" stroke-width="16" d="M0 16h5080"></path>
</symbol>
<symbol id="icon-Logo" viewBox="0 0 345 32">
<path fill="#dcdbdb" style="fill: var(--color1, #dcdbdb)" d="M16.725 15.317h11.051v13.12c-1.593 1.166-3.292 2.012-5.099 2.539-1.792 0.526-3.669 0.789-5.632 0.789-2.56 0-4.892-0.398-6.997-1.195-2.091-0.811-3.883-1.92-5.376-3.328-1.493-1.422-2.645-3.1-3.456-5.035-0.811-1.948-1.216-4.060-1.216-6.336 0-2.318 0.384-4.444 1.152-6.379 0.768-1.948 1.863-3.627 3.285-5.035 1.436-1.408 3.164-2.503 5.184-3.285 2.034-0.782 4.302-1.173 6.805-1.173 1.294 0 2.51 0.107 3.648 0.32s2.183 0.505 3.136 0.875c0.967 0.37 1.849 0.811 2.645 1.323s1.508 1.067 2.133 1.664l-2.091 3.179c-0.327 0.498-0.754 0.804-1.28 0.917-0.512 0.114-1.067-0.014-1.664-0.384-0.569-0.341-1.109-0.633-1.621-0.875-0.498-0.256-1.010-0.462-1.536-0.619s-1.081-0.27-1.664-0.341c-0.583-0.071-1.237-0.107-1.963-0.107-1.351 0-2.567 0.242-3.648 0.725-1.081 0.469-2.005 1.138-2.773 2.005-0.754 0.868-1.337 1.913-1.749 3.136-0.412 1.209-0.619 2.56-0.619 4.053 0 1.65 0.228 3.115 0.683 4.395s1.095 2.361 1.92 3.243c0.839 0.882 1.835 1.557 2.987 2.027 1.166 0.455 2.453 0.683 3.861 0.683 0.868 0 1.65-0.085 2.347-0.256 0.711-0.171 1.401-0.398 2.069-0.683v-4.715h-3.072c-0.455 0-0.811-0.121-1.067-0.363s-0.384-0.548-0.384-0.917v-3.968z"></path>
<path fill="#dcdbdb" style="fill: var(--color1, #dcdbdb)" d="M43.591 14.955c0.981 0 1.813-0.121 2.496-0.363 0.697-0.256 1.266-0.604 1.707-1.045s0.761-0.953 0.96-1.536c0.199-0.597 0.299-1.237 0.299-1.92 0-1.365-0.448-2.432-1.344-3.2-0.882-0.768-2.254-1.152-4.117-1.152h-2.901v9.216h2.901zM58.908 31.424h-6.528c-1.209 0-2.076-0.455-2.603-1.365l-5.163-9.024c-0.242-0.384-0.512-0.661-0.811-0.832-0.299-0.185-0.725-0.277-1.28-0.277h-1.835v11.499h-7.211v-31.083h10.112c2.247 0 4.16 0.235 5.739 0.704 1.593 0.455 2.887 1.095 3.883 1.92 1.010 0.825 1.742 1.799 2.197 2.923s0.683 2.347 0.683 3.669c0 1.010-0.135 1.963-0.405 2.859s-0.668 1.728-1.195 2.496c-0.526 0.754-1.18 1.429-1.963 2.027-0.768 0.597-1.657 1.088-2.667 1.472 0.469 0.242 0.91 0.548 1.323 0.917 0.412 0.356 0.782 0.782 1.109 1.28l6.613 10.816z"></path>
<path fill="#dcdbdb" style="fill: var(--color1, #dcdbdb)" d="M78.8 19.541l-2.88-8.512c-0.213-0.54-0.441-1.173-0.683-1.899-0.242-0.74-0.484-1.536-0.725-2.389-0.213 0.868-0.441 1.671-0.683 2.411s-0.469 1.38-0.683 1.92l-2.859 8.469h8.512zM90.256 31.424h-5.589c-0.626 0-1.131-0.142-1.515-0.427-0.384-0.299-0.676-0.676-0.875-1.131l-1.835-5.419h-11.819l-1.835 5.419c-0.156 0.398-0.441 0.761-0.853 1.088-0.398 0.313-0.896 0.469-1.493 0.469h-5.632l12.032-31.083h7.381l12.032 31.083z"></path>
<path fill="#dcdbdb" style="fill: var(--color1, #dcdbdb)" d="M104.526 15.595c1.877 0 3.228-0.448 4.053-1.344s1.237-2.148 1.237-3.755c0-0.711-0.107-1.358-0.32-1.941s-0.54-1.081-0.981-1.493c-0.427-0.427-0.974-0.754-1.643-0.981-0.654-0.228-1.436-0.341-2.347-0.341h-3.755v9.856h3.755zM104.526 0.341c2.19 0 4.068 0.263 5.632 0.789 1.579 0.512 2.873 1.223 3.883 2.133 1.024 0.91 1.778 1.984 2.261 3.221s0.725 2.574 0.725 4.011c0 1.55-0.249 2.972-0.747 4.267s-1.259 2.404-2.283 3.328c-1.024 0.924-2.325 1.65-3.904 2.176-1.564 0.512-3.42 0.768-5.568 0.768h-3.755v10.389h-7.211v-31.083h10.965z"></path>
<path fill="#dcdbdb" style="fill: var(--color1, #dcdbdb)" d="M148.674 0.341v31.083h-7.253v-13.141h-12.629v13.141h-7.253v-31.083h7.253v12.992h12.629v-12.992h7.253z"></path>
<path fill="#dcdbdb" style="fill: var(--color1, #dcdbdb)" d="M162.812 5.888v7.253h9.771v5.333h-9.771v7.403h12.757v5.547h-20.011v-31.083h20.011v5.547h-12.757z"></path>
<path fill="#dcdbdb" style="fill: var(--color1, #dcdbdb)" d="M190.982 14.955c0.981 0 1.813-0.121 2.496-0.363 0.697-0.256 1.266-0.604 1.707-1.045s0.761-0.953 0.96-1.536c0.199-0.597 0.299-1.237 0.299-1.92 0-1.365-0.448-2.432-1.344-3.2-0.882-0.768-2.254-1.152-4.117-1.152h-2.901v9.216h2.901zM206.299 31.424h-6.528c-1.209 0-2.076-0.455-2.603-1.365l-5.163-9.024c-0.242-0.384-0.512-0.661-0.811-0.832-0.299-0.185-0.725-0.277-1.28-0.277h-1.835v11.499h-7.211v-31.083h10.112c2.247 0 4.16 0.235 5.739 0.704 1.593 0.455 2.887 1.095 3.883 1.92 1.010 0.825 1.742 1.799 2.197 2.923s0.683 2.347 0.683 3.669c0 1.010-0.135 1.963-0.405 2.859s-0.668 1.728-1.195 2.496c-0.526 0.754-1.18 1.429-1.963 2.027-0.768 0.597-1.657 1.088-2.667 1.472 0.469 0.242 0.91 0.548 1.323 0.917 0.412 0.356 0.782 0.782 1.109 1.28l6.613 10.816z"></path>
<path fill="#dcdbdb" style="fill: var(--color1, #dcdbdb)" d="M237.668 6.656c-0.213 0.341-0.441 0.597-0.683 0.768-0.228 0.171-0.526 0.256-0.896 0.256-0.327 0-0.683-0.1-1.067-0.299-0.37-0.213-0.796-0.448-1.28-0.704-0.469-0.256-1.010-0.484-1.621-0.683-0.612-0.213-1.308-0.32-2.091-0.32-1.351 0-2.361 0.292-3.029 0.875-0.654 0.569-0.981 1.344-0.981 2.325 0 0.626 0.199 1.145 0.597 1.557s0.917 0.768 1.557 1.067c0.654 0.299 1.394 0.576 2.219 0.832 0.839 0.242 1.692 0.519 2.56 0.832 0.868 0.299 1.714 0.654 2.539 1.067 0.839 0.412 1.579 0.939 2.219 1.579 0.654 0.64 1.18 1.422 1.579 2.347 0.398 0.91 0.597 2.012 0.597 3.307 0 1.436-0.249 2.78-0.747 4.032s-1.223 2.347-2.176 3.285c-0.939 0.924-2.105 1.657-3.499 2.197-1.38 0.526-2.951 0.789-4.715 0.789-0.967 0-1.956-0.1-2.965-0.299-0.996-0.199-1.963-0.476-2.901-0.832-0.939-0.37-1.82-0.804-2.645-1.301s-1.543-1.052-2.155-1.664l2.133-3.371c0.171-0.242 0.391-0.441 0.661-0.597 0.284-0.171 0.59-0.256 0.917-0.256 0.427 0 0.853 0.135 1.28 0.405 0.441 0.27 0.932 0.569 1.472 0.896 0.555 0.327 1.188 0.626 1.899 0.896s1.55 0.405 2.517 0.405c1.308 0 2.325-0.284 3.051-0.853 0.725-0.583 1.088-1.5 1.088-2.752 0-0.725-0.199-1.316-0.597-1.771s-0.924-0.832-1.579-1.131c-0.64-0.299-1.372-0.562-2.197-0.789s-1.671-0.476-2.539-0.747c-0.868-0.284-1.714-0.626-2.539-1.024-0.825-0.412-1.564-0.946-2.219-1.6-0.64-0.668-1.159-1.493-1.557-2.475-0.398-0.996-0.597-2.219-0.597-3.669 0-1.166 0.235-2.304 0.704-3.413s1.159-2.098 2.069-2.965c0.91-0.868 2.027-1.557 3.349-2.069 1.323-0.526 2.837-0.789 4.544-0.789 0.953 0 1.877 0.078 2.773 0.235 0.91 0.142 1.771 0.363 2.581 0.661 0.811 0.284 1.564 0.633 2.261 1.045 0.711 0.398 1.344 0.853 1.899 1.365l-1.792 3.349z"></path>
<path fill="#dcdbdb" style="fill: var(--color1, #dcdbdb)" d="M272.108 0.341v31.083h-7.253v-13.141h-12.629v13.141h-7.253v-31.083h7.253v12.992h12.629v-12.992h7.253z"></path>
<path fill="#dcdbdb" style="fill: var(--color1, #dcdbdb)" d="M309.498 15.872c0 2.247-0.39 4.338-1.172 6.272-0.769 1.934-1.857 3.62-3.264 5.056-1.408 1.422-3.109 2.539-5.1 3.349-1.977 0.811-4.174 1.216-6.592 1.216-2.417 0-4.621-0.405-6.613-1.216-1.991-0.811-3.698-1.927-5.119-3.349-1.409-1.436-2.503-3.122-3.287-5.056-0.767-1.934-1.152-4.025-1.152-6.272s0.385-4.338 1.152-6.272c0.783-1.934 1.877-3.612 3.287-5.035 1.421-1.422 3.128-2.539 5.119-3.349 1.992-0.811 4.197-1.216 6.613-1.216 2.418 0 4.615 0.412 6.592 1.237 1.991 0.811 3.692 1.927 5.1 3.349 1.407 1.422 2.495 3.1 3.264 5.035 0.782 1.934 1.172 4.018 1.172 6.251zM302.117 15.872c0-1.536-0.199-2.916-0.596-4.139-0.398-1.237-0.975-2.283-1.729-3.136-0.738-0.853-1.65-1.508-2.731-1.963s-2.311-0.683-3.691-0.683c-1.394 0-2.638 0.228-3.732 0.683-1.082 0.455-1.999 1.109-2.753 1.963-0.738 0.853-1.308 1.899-1.707 3.136-0.398 1.223-0.597 2.603-0.597 4.139 0 1.55 0.199 2.944 0.597 4.181 0.398 1.223 0.968 2.261 1.707 3.115 0.754 0.853 1.671 1.508 2.753 1.963 1.094 0.441 2.338 0.661 3.732 0.661 1.38 0 2.61-0.22 3.691-0.661 1.081-0.455 1.992-1.109 2.731-1.963 0.754-0.853 1.331-1.892 1.729-3.115 0.397-1.237 0.596-2.631 0.596-4.181z"></path>
<path fill="#dcdbdb" style="fill: var(--color1, #dcdbdb)" d="M336.181 6.059h-8.747v25.365h-7.211v-25.365h-8.747v-5.717h24.704v5.717z"></path>
<path fill="#dcdbdb" style="fill: var(--color1, #dcdbdb)" d="M336.369 28.075c0-0.512 0.092-0.988 0.277-1.429 0.199-0.441 0.462-0.825 0.789-1.152 0.341-0.327 0.74-0.583 1.195-0.768 0.455-0.199 0.953-0.299 1.493-0.299 0.526 0 1.017 0.1 1.472 0.299 0.455 0.185 0.853 0.441 1.195 0.768s0.603 0.711 0.789 1.152c0.198 0.441 0.299 0.917 0.299 1.429s-0.101 0.996-0.299 1.451c-0.186 0.441-0.448 0.825-0.789 1.152s-0.74 0.583-1.195 0.768c-0.455 0.185-0.946 0.277-1.472 0.277-0.54 0-1.038-0.092-1.493-0.277s-0.853-0.441-1.195-0.768c-0.327-0.327-0.59-0.711-0.789-1.152-0.185-0.455-0.277-0.939-0.277-1.451z"></path>
</symbol>
<symbol id="icon-Vector-3" viewBox="0 0 113 32">
<path fill="none" stroke="#898d92" style="stroke: var(--color1, #898d92)" stroke-linejoin="miter" stroke-linecap="butt" stroke-miterlimit="4" stroke-width="0.7059" d="M112.471 11.418v-10.947h-112v31.059h112v-7.892"></path>
</symbol>
</defs>
</svg>
